<svg width="63" height="63" viewBox="0 0 63 63" fill="none" xmlns="http://www.w3.org/2000/svg">
<rect x="2.5" y="2.44336" width="58" height="58" rx="29" stroke="#333333" stroke-width="4" stroke-linecap="round" stroke-linejoin="round" stroke-dasharray="2 11"/>
<path d="M19.8996 46.9434V40.8534L30.5256 31.0254C31.1976 30.3814 31.6876 29.8214 31.9956 29.3454C32.3316 28.8694 32.5556 28.4494 32.6676 28.0854C32.7796 27.6934 32.8356 27.3294 32.8356 26.9934C32.8356 26.2654 32.5976 25.7054 32.1216 25.3134C31.6456 24.8934 30.9316 24.6834 29.9796 24.6834C29.1116 24.6834 28.2856 24.9214 27.5016 25.3974C26.7176 25.8454 26.1016 26.5174 25.6536 27.4134L18.1776 23.6754C19.2416 21.6594 20.8376 20.0214 22.9656 18.7614C25.0936 17.5014 27.7396 16.8714 30.9036 16.8714C33.2276 16.8714 35.2856 17.2494 37.0776 18.0054C38.8696 18.7614 40.2696 19.8254 41.2776 21.1974C42.2856 22.5694 42.7896 24.1934 42.7896 26.0694C42.7896 27.0214 42.6636 27.9734 42.4116 28.9254C42.1876 29.8774 41.7116 30.8854 40.9836 31.9494C40.2556 32.9854 39.1776 34.1474 37.7496 35.4354L29.7696 42.7014L28.2156 39.2574H43.4616V46.9434H19.8996Z" fill="#408950"/>
</svg>
