<svg width="125" height="63" viewBox="0 0 125 63" fill="none" xmlns="http://www.w3.org/2000/svg">
<g opacity="0.42">
<circle cx="3.68676" cy="3.95092" r="3.68676" fill="#55B76B"/>
<circle cx="20.6604" cy="3.95092" r="3.68676" fill="#55B76B"/>
<circle cx="37.635" cy="3.95092" r="3.68676" fill="#55B76B"/>
<circle cx="54.6086" cy="3.95092" r="3.68676" fill="#55B76B"/>
<circle cx="71.5832" cy="3.95092" r="3.68676" fill="#55B76B"/>
<circle cx="88.5569" cy="3.95092" r="3.68676" fill="#55B76B"/>
<circle cx="105.531" cy="3.95092" r="3.68676" fill="#55B76B"/>
<circle cx="3.68676" cy="31.3245" r="3.68676" fill="#55B76B"/>
<circle cx="20.6604" cy="31.3245" r="3.68676" fill="#55B76B"/>
<circle cx="37.635" cy="31.3245" r="3.68676" fill="#55B76B"/>
<circle cx="54.6086" cy="31.3245" r="3.68676" fill="#55B76B"/>
<circle cx="71.5832" cy="31.3245" r="3.68676" fill="#55B76B"/>
<circle cx="88.5569" cy="31.3245" r="3.68676" fill="#55B76B"/>
<circle cx="105.531" cy="31.3245" r="3.68676" fill="#55B76B"/>
<circle cx="3.68676" cy="58.698" r="3.68676" fill="#55B76B"/>
<circle cx="20.6604" cy="58.698" r="3.68676" fill="#55B76B"/>
<circle cx="37.635" cy="58.698" r="3.68676" fill="#55B76B"/>
<circle cx="54.6086" cy="58.698" r="3.68676" fill="#55B76B"/>
<circle cx="71.5832" cy="58.698" r="3.68676" fill="#55B76B"/>
<circle cx="88.5569" cy="58.698" r="3.68676" fill="#55B76B"/>
</g>
</svg>
