<svg width="225" height="184" viewBox="0 0 225 184" fill="none" xmlns="http://www.w3.org/2000/svg">
<g opacity="0.75">
<circle cx="16.243" cy="15.4442" r="15.4442" fill="#033816"/>
<circle cx="64.3709" cy="15.4442" r="15.4442" fill="#033816"/>
<circle cx="112.5" cy="15.4442" r="15.4442" fill="#033816"/>
<circle cx="160.628" cy="15.4442" r="15.4442" fill="#033816"/>
<circle cx="208.756" cy="15.4442" r="15.4442" fill="#033816"/>
<circle cx="16.243" cy="66.3323" r="15.4442" fill="#033816"/>
<circle cx="64.3709" cy="66.3323" r="15.4442" fill="#033816"/>
<circle cx="112.5" cy="66.3323" r="15.4442" fill="#033816"/>
<circle cx="160.628" cy="66.3323" r="15.4442" fill="#033816"/>
<circle cx="208.756" cy="66.3323" r="15.4442" fill="#033816"/>
<circle cx="16.243" cy="117.221" r="15.4442" fill="#033816"/>
<circle cx="64.3709" cy="117.221" r="15.4442" fill="#033816"/>
<circle cx="112.5" cy="117.221" r="15.4442" fill="#033816"/>
<circle cx="160.628" cy="117.221" r="15.4442" fill="#033816"/>
<circle cx="208.756" cy="117.221" r="15.4442" fill="#033816"/>
<circle cx="16.243" cy="168.109" r="15.4442" fill="#033816"/>
<circle cx="64.3709" cy="168.109" r="15.4442" fill="#033816"/>
<circle cx="112.5" cy="168.109" r="15.4442" fill="#033816"/>
<circle cx="160.628" cy="168.109" r="15.4442" fill="#033816"/>
<circle cx="208.756" cy="168.109" r="15.4442" fill="#033816"/>
</g>
</svg>
