<svg width="24" height="25" viewBox="0 0 24 25" fill="none" xmlns="http://www.w3.org/2000/svg">
<rect y="0.712524" width="24" height="24" rx="12" fill="#55B76B"/>
<path d="M13.9334 13.005C13.9261 13.3852 13.8062 13.7546 13.5887 14.0665C13.3713 14.3784 13.0661 14.6187 12.712 14.757C12.3578 14.8952 11.9705 14.9252 11.5993 14.8432C11.228 14.7611 10.8895 14.5706 10.6266 14.296C10.3638 14.0213 10.1883 13.6747 10.1226 13.3002C10.0569 12.9258 10.1039 12.5402 10.2576 12.1924C10.4112 11.8447 10.6647 11.5503 10.9858 11.3468C11.307 11.1432 11.6813 11.0396 12.0614 11.0491C12.5665 11.0678 13.0444 11.2824 13.3938 11.6476C13.7433 12.0127 13.9368 12.4996 13.9334 13.005Z" fill="#002417"/>
<path d="M15.3137 6.99377H8.80377C8.15962 6.99377 7.54185 7.24966 7.08637 7.70514C6.63089 8.16063 6.375 8.77839 6.375 9.42254V16.0789C6.375 16.3978 6.43782 16.7136 6.55988 17.0083C6.68194 17.303 6.86084 17.5707 7.08637 17.7963C7.3119 18.0218 7.57965 18.2007 7.87432 18.3228C8.16899 18.4448 8.48482 18.5076 8.80377 18.5076H15.3137C15.6326 18.5076 15.9485 18.4448 16.2431 18.3228C16.5378 18.2007 16.8056 18.0218 17.0311 17.7963C17.2566 17.5707 17.4355 17.303 17.5576 17.0083C17.6796 16.7136 17.7425 16.3978 17.7425 16.0789V9.43454C17.7437 9.11467 17.6818 8.7977 17.5604 8.50178C17.4389 8.20587 17.2603 7.93683 17.0346 7.71009C16.809 7.48335 16.5409 7.30336 16.2455 7.18044C15.9502 7.05752 15.6336 6.99409 15.3137 6.99377ZM12.0581 16.2613C11.4137 16.2758 10.7795 16.098 10.2366 15.7506C9.69366 15.4031 9.26655 14.9018 9.00979 14.3105C8.75303 13.7193 8.67826 13.0649 8.79503 12.431C8.91179 11.797 9.21479 11.2123 9.66536 10.7513C10.1159 10.2903 10.6936 9.97407 11.3247 9.84286C11.9558 9.71166 12.6117 9.77148 13.2087 10.0147C13.8056 10.2579 14.3166 10.6734 14.6764 11.2083C15.0361 11.7432 15.2283 12.3731 15.2285 13.0177C15.2334 13.4389 15.1553 13.8569 14.9986 14.2479C14.8419 14.6388 14.6097 14.9951 14.3153 15.2963C14.0209 15.5975 13.67 15.8378 13.2827 16.0034C12.8954 16.1689 12.4793 16.2566 12.0581 16.2613ZM15.5813 9.77534C15.5021 9.77536 15.4237 9.75957 15.3507 9.72891C15.2777 9.69825 15.2115 9.65334 15.1561 9.59679C15.1007 9.54025 15.0571 9.47321 15.0279 9.3996C14.9987 9.326 14.9845 9.24731 14.9861 9.16815C14.9861 9.00711 15.0501 8.85267 15.1639 8.7388C15.2778 8.62493 15.4322 8.56095 15.5933 8.56095C15.7543 8.56095 15.9088 8.62493 16.0226 8.7388C16.1365 8.85267 16.2005 9.00711 16.2005 9.16815C16.2029 9.25387 16.1867 9.3391 16.1531 9.41799C16.1195 9.49688 16.0692 9.56758 16.0057 9.62524C15.9423 9.68291 15.8671 9.72617 15.7853 9.75208C15.7036 9.77798 15.6172 9.78592 15.5321 9.77534H15.5813Z" fill="#002417"/>
</svg>
