<svg width="27" height="27" viewBox="0 0 27 27" fill="none" xmlns="http://www.w3.org/2000/svg">
<rect y="0.0976562" width="26.25" height="26.2507" rx="13.125" fill="#55B76B"/>
<path d="M9.64047 6.8656L10.73 6.53709C11.0896 6.42884 11.4763 6.45511 11.818 6.61098C12.1596 6.76686 12.4329 7.0417 12.5868 7.38424L13.3507 9.08304C13.4833 9.37775 13.5202 9.70659 13.4564 10.0234C13.3925 10.3402 13.2311 10.629 12.9947 10.8493L11.832 11.9327C11.6762 12.0807 11.7943 12.6573 12.3635 13.6439C12.9333 14.6311 13.3738 15.0215 13.5768 14.9608L15.1001 14.495C15.4089 14.4006 15.7394 14.4051 16.0455 14.508C16.3515 14.6109 16.6177 14.807 16.8067 15.0688L17.8923 16.5735C18.1116 16.8774 18.2132 17.2505 18.1781 17.6235C18.143 17.9966 17.9737 18.3443 17.7017 18.6019L16.8624 19.3968C16.5915 19.6533 16.2573 19.8335 15.8941 19.9187C15.5308 20.004 15.1515 19.9914 14.7947 19.8822C13.0363 19.3439 11.4078 17.7463 9.8874 15.1121C8.36359 12.4739 7.78815 10.2486 8.18922 8.43052C8.27011 8.06418 8.44723 7.72605 8.70233 7.45097C8.95742 7.17589 9.28126 6.97383 9.64047 6.8656Z" fill="#053F0E"/>
</svg>
