<svg width="193" height="144" viewBox="0 0 193 144" fill="none" xmlns="http://www.w3.org/2000/svg">
<path d="M130.064 19.1264C130.064 19.1264 131.105 53.6398 145.845 68.3795C160.584 83.1191 192.228 81.2905 192.228 81.2905C192.228 81.2905 160.584 79.7684 145.845 94.508C131.105 109.248 130.064 143.455 130.064 143.455C130.064 143.455 133.699 113.551 118.959 98.8117C104.22 84.072 67.9003 81.2905 67.9003 81.2905C67.9003 81.2905 99.4379 83.1191 114.178 68.3795C128.917 53.6398 130.064 19.1264 130.064 19.1264Z" fill="#55B76B"/>
<path d="M36.3388 0.955533C36.3388 0.955533 36.9311 20.6016 45.3213 28.9919C53.7116 37.3821 71.7245 36.3412 71.7245 36.3412C71.7245 36.3412 53.7116 35.4748 45.3213 43.865C36.9311 52.2553 36.3388 71.7269 36.3388 71.7269C36.3388 71.7269 38.4077 54.7051 30.0175 46.3148C21.6272 37.9246 0.953088 36.3412 0.953088 36.3412C0.953088 36.3412 18.9052 37.3821 27.2955 28.9919C35.6857 20.6016 36.3388 0.955533 36.3388 0.955533Z" fill="#55B76B"/>
<path d="M57.3806 84.1596C57.3806 84.1596 57.7648 96.9031 63.2071 102.345C68.6494 107.788 80.3335 107.113 80.3335 107.113C80.3335 107.113 68.6494 106.551 63.2071 111.993C57.7648 117.435 57.3806 130.065 57.3806 130.065C57.3806 130.065 58.7226 119.024 53.2803 113.582C47.838 108.14 34.4277 107.113 34.4277 107.113C34.4277 107.113 46.0724 107.788 51.5147 102.345C56.957 96.9031 57.3806 84.1596 57.3806 84.1596Z" fill="#55B76B"/>
</svg>
