<svg width="27" height="27" viewBox="0 0 27 27" fill="none" xmlns="http://www.w3.org/2000/svg">
<rect y="0.223022" width="26.25" height="26.2507" rx="13.125" fill="#55B76B"/>
<path d="M13.125 13.0672C12.752 13.0672 12.3944 12.919 12.1306 12.6553C11.8669 12.3915 11.7188 12.0338 11.7188 11.6609C11.7188 11.2879 11.8669 10.9302 12.1306 10.6665C12.3944 10.4028 12.752 10.2546 13.125 10.2546C13.498 10.2546 13.8556 10.4028 14.1194 10.6665C14.3831 10.9302 14.5312 11.2879 14.5312 11.6609C14.5312 11.8456 14.4949 12.0284 14.4242 12.199C14.3535 12.3697 14.25 12.5247 14.1194 12.6553C13.9888 12.7859 13.8338 12.8894 13.6631 12.9601C13.4925 13.0308 13.3097 13.0672 13.125 13.0672ZM13.125 7.72327C12.0807 7.72327 11.0792 8.13812 10.3408 8.87657C9.60234 9.61501 9.1875 10.6166 9.1875 11.6609C9.1875 14.6141 13.125 18.9736 13.125 18.9736C13.125 18.9736 17.0625 14.6141 17.0625 11.6609C17.0625 10.6166 16.6477 9.61501 15.9092 8.87657C15.1708 8.13812 14.1693 7.72327 13.125 7.72327Z" fill="#053F0E"/>
</svg>
