<svg width="24" height="25" viewBox="0 0 24 25" fill="none" xmlns="http://www.w3.org/2000/svg">
<path d="M12 0.712524C18.6343 0.712524 24 6.07824 24 12.7125C24 19.3468 18.6343 24.7125 12 24.7125C5.36571 24.7125 0 19.3468 0 12.7125C0 6.07824 5.36571 0.712524 12 0.712524ZM9.80571 19.0382C15.12 19.0382 18.0343 14.6325 18.0343 10.8097V10.4325C18.6 10.0211 19.0971 9.50681 19.4743 8.92395C18.96 9.14681 18.3943 9.3011 17.8114 9.38681C18.4114 9.02681 18.8743 8.4611 19.08 7.79252C18.5143 8.11824 17.8971 8.35824 17.2457 8.49538C16.7143 7.92967 15.96 7.58681 15.1371 7.58681C13.5429 7.58681 12.24 8.88967 12.24 10.484C12.24 10.7068 12.2571 10.9297 12.3257 11.1354C9.92571 11.0154 7.78286 9.86681 6.36 8.11824C6.12 8.54681 5.96571 9.04395 5.96571 9.57538C5.96571 10.5697 6.48 11.4611 7.25143 11.9754C6.77143 11.9754 6.32571 11.8382 5.94857 11.6154V11.6497C5.94857 13.0554 6.94286 14.2211 8.26286 14.4954C8.02286 14.564 7.76571 14.5982 7.50857 14.5982C7.32 14.5982 7.14857 14.5811 6.96 14.5468C7.32 15.6954 8.4 16.5354 9.65143 16.5525C8.65714 17.324 7.40571 17.7868 6.05143 17.7868C5.81143 17.7868 5.58857 17.7868 5.36571 17.7525C6.63429 18.5754 8.16 19.0554 9.78857 19.0554" fill="#55B76B"/>
</svg>
