<svg width="288" height="411" viewBox="0 0 288 411" fill="none" xmlns="http://www.w3.org/2000/svg">
<path d="M288 205.443L257.3 231.743V365.843C257.3 390.443 237.3 410.443 212.7 410.443H162.2C145.8 410.443 131.5 401.643 123.7 388.443H192.3C216.9 388.443 236.9 368.443 236.9 343.843V65.0434C237 40.4434 217 20.4434 192.4 20.4434H125C133 8.34336 146.7 0.443359 162.2 0.443359H212.7C237.3 0.443359 257.3 20.4434 257.3 45.0434V179.143L288 205.443Z" fill="#408950"/>
<path d="M237 65.0434V343.843C237 368.443 217 388.443 192.4 388.443H44.6C20 388.443 0 368.443 0 343.843V65.0434C0 40.4434 20 20.4434 44.6 20.4434H192.4C217 20.4434 237 40.4434 237 65.0434Z" fill="#F2F2F2"/>
</svg>
