<svg width="82" height="82" viewBox="0 0 82 82" fill="none" xmlns="http://www.w3.org/2000/svg">
<path d="M42.4529 81.3995C28.2939 82.0236 14.3326 74.9198 6.61107 63.0528C-0.945837 51.4403 -1.9419 35.9843 4.10856 23.5178C8.94893 13.5396 17.8312 5.79518 28.4257 2.41163C30.7635 1.66429 33.1672 1.19618 35.5874 0.834832C51.0799 -1.50573 67.1733 6.70677 75.2653 19.8714C83.2914 32.9375 83.1432 50.0934 74.7961 62.9542C71.8655 67.4629 68.0459 71.4049 63.6007 74.4353C57.2703 78.7468 49.9357 81.071 42.4529 81.3995ZM27.6601 40.9611C25.6515 40.9611 23.7582 40.9611 21.8237 40.9611C22.0048 40.4848 22.1859 40.0578 22.3258 39.6143C22.4987 39.0805 22.8856 38.5713 22.5563 37.9471C22.3587 37.5776 21.873 37.2244 21.4368 37.2327C20.9922 37.2327 20.4572 37.594 20.309 37.9964C19.9715 38.8916 19.6257 39.7867 19.28 40.6819C19.1894 40.9118 19.0413 41.0104 18.7861 41.0022C18.251 40.9858 17.7159 40.994 17.1809 41.0022C16.6622 41.0104 16.2095 41.3882 16.1683 41.8891C16.0531 43.3181 16.0942 44.7307 16.6129 46.0939C17.4278 48.221 18.8602 49.7978 20.877 50.8408C22.26 51.5553 23.7335 51.7934 25.2811 51.7195C27.2485 51.621 28.9525 50.8983 30.4013 49.6335C32.6816 47.6461 33.5788 45.0756 33.3895 42.0945C33.3483 41.4867 32.838 41.0104 32.2206 41.0022C31.702 40.994 31.1751 41.0186 30.6565 40.9858C30.5083 40.9776 30.2861 40.879 30.2367 40.764C29.8827 39.9181 29.5534 39.064 29.2324 38.2017C28.7302 36.8795 28.2363 35.5573 27.7342 34.2269C27.4872 33.5863 27.2485 32.9457 26.9933 32.3051C26.911 32.0998 26.9686 31.9849 27.1497 31.8699C27.9976 31.3361 28.6232 30.6134 28.969 29.6689C29.0677 29.3979 29.2242 29.2994 29.5123 29.2994C31.3233 29.3076 33.1343 29.3158 34.9453 29.2994C35.2499 29.2994 35.4228 29.4226 35.4886 29.6771C35.8262 30.868 36.5835 31.7549 37.5384 32.494C37.6454 32.5762 37.7442 32.7568 37.736 32.8882C37.7195 33.2496 37.6372 33.6109 37.5878 33.9723C37.4643 34.851 37.3655 35.7215 37.2256 36.6003C37.0939 37.4872 36.9128 38.366 36.7811 39.2529C36.6576 40.0906 36.5917 40.9365 36.4682 41.7742C36.2789 42.9896 36.0566 44.2051 35.8591 45.4205C35.6862 46.5046 35.5298 47.5886 35.3734 48.6727C35.1923 49.921 35.0194 51.1775 34.8548 52.4258C34.8054 52.7789 34.649 52.9432 34.2621 52.935C33.299 52.9103 32.3441 52.9185 31.3809 52.9267C30.3108 52.935 29.8333 53.4195 29.8251 54.4871C29.8251 56.4335 29.8169 58.3716 29.8333 60.318C29.8333 60.7204 29.7016 60.8354 29.3147 60.8272C27.4378 60.8107 25.5527 60.8107 23.6758 60.8272C23.3383 60.8272 22.9926 60.8847 22.6715 60.9668C22.0953 61.1228 21.766 61.9359 21.9718 62.4861C22.2353 63.1842 22.8033 63.3484 23.4453 63.3566C26.096 63.373 28.7385 63.3813 31.3892 63.3813C40.1726 63.3813 48.9478 63.373 57.7313 63.3648C57.8383 63.3648 57.9536 63.3648 58.0606 63.3566C58.7685 63.2909 59.2624 62.9131 59.3859 62.2726C59.4929 61.747 59.213 61.3281 58.7768 61.09C58.4722 60.9257 58.0853 60.8436 57.7313 60.8354C55.8791 60.8107 54.0269 60.8272 52.1748 60.8272C51.3845 60.8272 51.4503 60.8764 51.4503 60.1291C51.4503 60.0306 51.4503 59.9402 51.4421 59.8417C51.3763 59.2093 51.0141 58.8069 50.3226 58.6591C50.0098 58.5934 49.3594 58.733 49.1454 59.2668C49.0137 59.5871 49.0055 59.9813 49.0137 60.3426C49.0219 60.704 48.9067 60.819 48.5445 60.819C43.276 60.8107 38.0076 60.8107 32.7392 60.819C32.377 60.819 32.27 60.6958 32.2782 60.3426C32.2947 58.9219 32.2864 57.4929 32.2864 56.0721C32.2864 55.4726 32.2864 55.4644 32.9038 55.4726C36.9128 55.4808 40.9135 55.4808 44.9224 55.489C46.1408 55.489 47.3673 55.489 48.5856 55.4726C48.9067 55.4644 49.0384 55.5794 49.0137 55.8997C48.9972 56.1543 49.0137 56.4171 49.0219 56.6799C49.0466 57.3204 49.9357 57.7721 50.3637 57.6654C51.047 57.5011 51.4421 56.9837 51.4586 56.2692C51.4668 55.7108 51.4586 55.1441 51.4586 54.5857C51.4586 53.4031 50.9976 52.9432 49.8204 52.935C48.8573 52.935 47.9024 52.9267 46.9393 52.935C46.6264 52.9432 46.4865 52.7953 46.4453 52.5161C46.3795 52.1137 46.3219 51.7113 46.2642 51.3089C46.1408 50.4219 46.0255 49.535 45.902 48.6398C45.8526 48.2538 45.7868 47.8596 45.7292 47.4736C45.581 46.6113 45.4246 45.7408 45.2846 44.8785C45.2023 44.3283 45.1612 43.7698 45.0788 43.2278C44.8977 42.0287 44.6919 40.8379 44.5108 39.6389C44.2803 38.0457 44.0745 36.4525 43.8358 34.8674C43.7617 34.3747 43.63 33.8819 43.5559 33.3892C43.4983 32.9868 43.4983 32.6336 43.9181 32.3298C44.8154 31.681 45.4575 30.8105 45.7703 29.7182C45.8444 29.4472 46.009 29.3076 46.3301 29.3076C48.1246 29.324 49.9274 29.324 51.722 29.3076C52.0595 29.3076 52.2159 29.4226 52.3229 29.7264C52.6357 30.6052 53.212 31.3032 53.994 31.796C54.3891 32.0423 54.3315 32.2723 54.1998 32.5926C53.7882 33.6191 53.3766 34.6539 52.9815 35.6805C52.3394 37.3476 51.7138 39.0312 51.0552 40.6983C50.9976 40.8379 50.7671 40.9858 50.6107 40.994C50.0756 41.035 49.5405 41.0022 49.0055 41.0104C48.4622 41.0186 47.9353 41.4867 47.8942 42.0288C47.8036 43.2606 47.8777 44.4925 48.2646 45.6751C48.8408 47.449 49.8698 48.919 51.3927 50.0442C52.9239 51.1857 54.6443 51.7441 56.5377 51.7606C58.5298 51.777 60.3326 51.1611 61.8802 49.9045C64.4239 47.8514 65.4281 45.1495 65.1153 41.9302C65.0659 41.4046 64.6132 41.0186 64.0863 41.0104C63.5348 41.0022 62.9915 41.0268 62.44 40.994C62.2918 40.9858 62.0778 40.8461 62.0201 40.7148C61.6662 39.8853 61.3369 39.0394 61.0076 38.1935C60.275 36.28 59.5506 34.3665 58.8179 32.453C58.7274 32.2148 58.7438 32.0423 58.9661 31.8863C60.1926 31.0568 60.9253 29.9646 61.0158 28.4371C61.0735 27.5419 60.9829 26.696 60.5384 25.9322C59.5423 24.2158 58.0276 23.3617 56.0355 23.567C54.241 23.7559 53.0062 24.7825 52.3065 26.4332C52.1748 26.7371 52.0101 26.8356 51.6973 26.8356C49.9274 26.8274 48.1576 26.8192 46.3877 26.8356C46.009 26.8356 45.8691 26.6714 45.7539 26.3429C45.1941 24.7004 44.091 23.5424 42.4446 22.9757C41.9754 22.8115 41.8602 22.6144 41.8684 22.1709C41.8766 21.325 41.8684 20.4709 41.7861 19.6333C41.7202 18.9927 40.9793 18.5903 40.3619 18.7709C39.6787 18.968 39.3988 19.354 39.3823 20.1424C39.3659 20.898 39.3659 21.6453 39.3823 22.4009C39.3906 22.7047 39.2506 22.8526 38.979 22.9347C38.8473 22.9757 38.732 23.0332 38.6003 23.0825C37.0198 23.6656 36.032 24.8153 35.4886 26.3675C35.3816 26.6714 35.2417 26.8356 34.8795 26.8356C33.1096 26.8192 31.3398 26.8192 29.5699 26.8356C29.2324 26.8356 29.0513 26.7371 28.936 26.4086C28.6315 25.5463 28.0717 24.8564 27.3144 24.3554C25.4457 23.1154 23.363 23.2303 21.6837 24.7086C20.2184 25.9897 19.9385 27.7226 20.3748 29.3486C20.663 30.4163 21.3133 31.2457 22.2435 31.8535C22.4575 31.9931 22.5645 32.1573 22.4657 32.3955C22.1776 33.1264 21.8895 33.8491 21.5932 34.5718C21.3462 35.1631 21.6673 35.8858 22.2517 36.1404C23.0255 36.4771 23.7664 35.9679 23.9969 35.2699C24.1945 34.6703 24.4414 34.079 24.6637 33.4795C24.6966 33.4713 24.7378 33.4713 24.7707 33.4631C25.7421 35.9433 26.6887 38.4235 27.6601 40.9611Z" fill="#336E40"/>
<path d="M27.6601 40.9611C26.6887 38.4235 25.7338 35.9433 24.7872 33.4631C24.7542 33.4713 24.7131 33.4713 24.6801 33.4795C24.4579 34.0708 24.2109 34.6621 24.0134 35.2699C23.7829 35.9679 23.042 36.4771 22.2682 36.1404C21.6837 35.8858 21.3627 35.1631 21.6096 34.5718C21.906 33.8491 22.2023 33.1264 22.4822 32.3955C22.5728 32.1573 22.474 31.9931 22.26 31.8535C21.3297 31.2457 20.6794 30.4163 20.3913 29.3486C19.955 27.7226 20.2349 25.9897 21.7002 24.7086C23.3795 23.2385 25.4704 23.1236 27.3308 24.3554C28.0799 24.8564 28.6479 25.5463 28.9525 26.4086C29.0677 26.7371 29.2571 26.8356 29.5864 26.8356C31.3562 26.8192 33.1261 26.8192 34.8959 26.8356C35.2582 26.8356 35.4063 26.6714 35.5051 26.3675C36.0484 24.8071 37.028 23.6574 38.6168 23.0825C38.7403 23.0332 38.8637 22.9757 38.9954 22.9347C39.2589 22.8526 39.3988 22.7047 39.3988 22.4009C39.3823 21.6453 39.3823 20.898 39.3988 20.1424C39.4153 19.354 39.7034 18.9763 40.3784 18.7709C41.004 18.5903 41.7449 18.9927 41.8025 19.6333C41.8848 20.4709 41.8848 21.325 41.8848 22.1709C41.8848 22.6144 41.9919 22.8115 42.4611 22.9757C44.1075 23.5424 45.2023 24.7004 45.7703 26.3429C45.8773 26.6632 46.0255 26.8356 46.4042 26.8356C48.174 26.8192 49.9439 26.8192 51.7138 26.8356C52.0348 26.8356 52.1995 26.7371 52.3229 26.4332C53.0144 24.7825 54.2492 23.7559 56.052 23.567C58.0441 23.3617 59.5588 24.2076 60.5549 25.9322C60.9994 26.696 61.0899 27.5501 61.0323 28.4371C60.9335 29.9564 60.2009 31.0568 58.9826 31.8863C58.7603 32.0341 58.7438 32.2148 58.8344 32.453C59.567 34.3665 60.2914 36.28 61.0241 38.1935C61.3451 39.0394 61.6744 39.8853 62.0366 40.7147C62.0942 40.8461 62.3082 40.9858 62.4564 40.994C62.9997 41.0268 63.5513 41.0022 64.1028 41.0104C64.6296 41.0186 65.0824 41.4128 65.1318 41.9302C65.4446 45.1495 64.4403 47.8514 61.8967 49.9045C60.3491 51.1528 58.5463 51.7688 56.5541 51.7606C54.6608 51.7441 52.9403 51.1939 51.4092 50.0442C49.8945 48.9108 48.8655 47.449 48.2811 45.6751C47.8942 44.4925 47.8201 43.2606 47.9106 42.0287C47.9518 41.4867 48.4786 41.0186 49.0219 41.0104C49.557 41.0022 50.0921 41.0268 50.6272 40.994C50.7836 40.9858 51.0223 40.8379 51.0717 40.6983C51.7302 39.0312 52.3476 37.3558 52.9979 35.6805C53.3931 34.6457 53.8047 33.6191 54.2163 32.5926C54.348 32.2641 54.4056 32.0423 54.0105 31.796C53.2367 31.3032 52.6522 30.6052 52.3394 29.7264C52.2324 29.4308 52.076 29.3076 51.7385 29.3076C49.9439 29.324 48.1411 29.324 46.3466 29.3076C46.0173 29.3076 45.8609 29.4472 45.7868 29.7182C45.474 30.8105 44.8319 31.681 43.9346 32.3298C43.5065 32.6419 43.5148 32.9868 43.5724 33.3892C43.6465 33.8819 43.7782 34.3747 43.8523 34.8674C44.0828 36.4607 44.2886 38.0539 44.5273 39.6389C44.7002 40.8379 44.9142 42.0287 45.0953 43.2278C45.1776 43.778 45.2188 44.3365 45.3011 44.8785C45.4328 45.749 45.5974 46.6113 45.7456 47.4736C45.8115 47.8596 45.8691 48.2538 45.9185 48.6398C46.042 49.5268 46.1572 50.4137 46.2807 51.3089C46.3383 51.7113 46.3959 52.1137 46.4618 52.5161C46.503 52.7953 46.6429 52.9432 46.9557 52.935C47.9188 52.9185 48.8738 52.9267 49.8369 52.935C51.0141 52.9432 51.4668 53.4031 51.475 54.5857C51.475 55.1441 51.4833 55.7108 51.475 56.2692C51.4668 56.9837 51.0634 57.5011 50.3802 57.6654C49.9521 57.7721 49.0631 57.3204 49.0384 56.6799C49.0302 56.4171 49.0137 56.1625 49.0302 55.8997C49.0549 55.5712 48.9149 55.4644 48.6021 55.4726C47.3838 55.489 46.1572 55.489 44.9389 55.489C40.9299 55.489 36.9292 55.4808 32.9203 55.4726C32.3029 55.4726 32.3029 55.4726 32.3029 56.0721C32.3029 57.4929 32.3111 58.9219 32.2947 60.3426C32.2864 60.6958 32.3934 60.819 32.7556 60.819C38.0241 60.8107 43.2925 60.8107 48.5609 60.819C48.9231 60.819 49.0384 60.704 49.0302 60.3426C49.0219 59.9813 49.0302 59.5871 49.1619 59.2668C49.3841 58.733 50.0262 58.5934 50.339 58.6591C51.0223 58.8069 51.3845 59.2093 51.4586 59.8417C51.4668 59.9402 51.4668 60.0306 51.4668 60.1291C51.4668 60.8764 51.4092 60.8272 52.1912 60.8272C54.0434 60.8272 55.8956 60.8107 57.7478 60.8354C58.1017 60.8436 58.4886 60.9257 58.7932 61.09C59.2295 61.3281 59.5094 61.747 59.4024 62.2726C59.2789 62.9132 58.7768 63.2827 58.077 63.3566C57.97 63.3648 57.8548 63.3648 57.7478 63.3648C48.9643 63.3731 40.1891 63.3813 31.4056 63.3813C28.7549 63.3813 26.1125 63.3731 23.4618 63.3566C22.8197 63.3484 22.2517 63.1842 21.9883 62.4861C21.7743 61.9359 22.1118 61.1228 22.688 60.9668C23.0173 60.8764 23.3548 60.8272 23.6923 60.8272C25.5692 60.8108 27.4543 60.8108 29.3312 60.8272C29.7181 60.8272 29.8498 60.7204 29.8498 60.318C29.8333 58.3716 29.8415 56.4335 29.8415 54.4871C29.8415 53.4195 30.3272 52.935 31.3974 52.9267C32.3605 52.9185 33.3154 52.9103 34.2786 52.935C34.6655 52.9432 34.8219 52.7789 34.8713 52.4258C35.0359 51.1775 35.2088 49.921 35.3899 48.6727C35.5463 47.5886 35.7027 46.5046 35.8755 45.4205C36.0731 44.2051 36.2954 42.9896 36.4847 41.7742C36.6082 40.9365 36.674 40.0906 36.7975 39.2529C36.9292 38.366 37.1021 37.4872 37.242 36.6003C37.3738 35.7298 37.4808 34.851 37.6043 33.9723C37.6536 33.6109 37.736 33.2496 37.7524 32.8882C37.7607 32.7568 37.6619 32.5762 37.5549 32.494C36.6 31.7467 35.8426 30.868 35.5051 29.6771C35.431 29.4226 35.2664 29.2994 34.9618 29.2994C33.1508 29.3158 31.3398 29.3158 29.5287 29.2994C29.2324 29.2994 29.0842 29.3979 28.9854 29.6689C28.6397 30.6134 28.0223 31.3361 27.1662 31.8699C26.9851 31.9849 26.9274 32.0998 27.0098 32.3051C27.265 32.9457 27.5037 33.5863 27.7506 34.2269C28.2528 35.5491 28.7467 36.8795 29.2489 38.2017C29.5781 39.0558 29.8992 39.9181 30.2531 40.764C30.3025 40.879 30.5248 40.9858 30.673 40.9858C31.1916 41.0104 31.7184 40.994 32.237 41.0022C32.8462 41.0104 33.3648 41.4867 33.406 42.0944C33.5871 45.0756 32.6898 47.6461 30.4178 49.6335C28.969 50.8983 27.265 51.6292 25.2975 51.7195C23.7417 51.7934 22.2682 51.5553 20.8934 50.8408C18.8766 49.7978 17.4443 48.221 16.6293 46.0939C16.1107 44.7307 16.0613 43.3181 16.1848 41.8891C16.226 41.3882 16.6787 41.0104 17.1973 41.0022C17.7324 40.994 18.2675 40.9858 18.8025 41.0022C19.066 41.0104 19.2141 40.9118 19.2965 40.6819C19.634 39.7867 19.9797 38.8916 20.3254 37.9964C20.4736 37.594 21.0087 37.2327 21.4532 37.2327C21.8895 37.2327 22.3752 37.5776 22.5728 37.9471C22.902 38.5713 22.5151 39.0723 22.3423 39.6143C22.2023 40.0578 22.0212 40.4848 21.8401 40.9611C23.7664 40.9611 25.6597 40.9611 27.6601 40.9611ZM37.3161 52.8528C37.4561 52.8857 37.5055 52.9021 37.5549 52.9021C39.5717 52.9021 41.5885 52.9021 43.5971 52.9103C43.877 52.9103 43.9675 52.7871 43.9264 52.5325C43.8276 51.8591 43.7206 51.1857 43.6218 50.5205C43.3666 48.7959 43.1114 47.0794 42.8562 45.3548C42.6916 44.2708 42.5269 43.1867 42.3623 42.1109C42.1977 41.0432 42.0248 39.9674 41.8766 38.8998C41.6955 37.6515 41.5391 36.395 41.358 35.1385C41.3004 34.7032 41.2016 34.2761 41.1522 33.8491C41.111 33.5124 40.9053 33.4877 40.6336 33.4877C40.3537 33.4877 40.1644 33.5288 40.115 33.8573C39.9997 34.6539 39.8598 35.4423 39.7446 36.2389C39.5634 37.4872 39.3988 38.7437 39.2259 40.0003C39.1683 40.4191 39.1025 40.8297 39.0366 41.2486C38.8967 42.1027 38.7403 42.9485 38.6085 43.8026C38.5262 44.3365 38.4851 44.8785 38.411 45.4123C38.2793 46.3075 38.1311 47.2108 37.9911 48.106C37.843 49.034 37.6948 49.962 37.5549 50.8983C37.4725 51.5306 37.4067 52.1794 37.3161 52.8528ZM24.7625 49.305C25.3634 49.2147 25.9972 49.1983 26.5652 49.0094C27.9564 48.5495 29.1089 47.7447 29.9239 46.4799C30.4425 45.6751 30.7059 44.7799 30.9117 43.8684C30.9858 43.5481 30.8623 43.392 30.5001 43.4167C30.0391 43.4495 29.5699 43.4249 29.1007 43.4249C25.7421 43.4249 22.3834 43.4249 19.0248 43.4167C18.7038 43.4167 18.5474 43.507 18.6132 43.8355C18.7285 44.3611 18.8025 44.9113 19.0001 45.4041C19.9056 47.6215 22.0871 49.3297 24.7625 49.305ZM50.4214 43.4331C50.4049 43.5727 50.3967 43.6548 50.3884 43.7369C50.3884 43.8027 50.3802 43.8766 50.3967 43.9423C50.6354 45.0838 51.047 46.1596 51.8043 47.0712C52.7757 48.2374 54.0352 48.9683 55.5087 49.1901C56.3401 49.3132 57.2209 49.1736 58.0688 49.0587C58.9908 48.9355 59.781 48.4509 60.4972 47.8678C61.6744 46.907 62.3329 45.6423 62.6705 44.1886C62.8104 43.5727 62.7034 43.4331 62.086 43.4331C58.9167 43.4331 55.7556 43.4331 52.5863 43.4331C51.8784 43.4331 51.1705 43.4331 50.4214 43.4331ZM40.6501 30.9829C42.3376 30.909 43.5806 29.7675 43.5889 28.0593C43.5971 26.3593 42.3376 25.1028 40.6501 25.0946C38.9625 25.0946 37.7113 26.3511 37.7113 28.0511C37.7113 29.7593 38.979 30.9172 40.6501 30.9829ZM59.4929 40.9776C58.5133 38.4399 57.5667 35.9597 56.6118 33.4877C56.5788 33.4795 56.5459 33.4713 56.513 33.4631C55.5581 35.9515 54.6114 38.4317 53.6318 40.9776C55.6322 40.9776 57.5255 40.9776 59.4929 40.9776ZM58.5874 28.0182C58.7274 26.9095 57.4761 25.9322 56.4965 25.9979C55.3523 26.0719 54.5044 26.9424 54.5126 28.1825C54.5209 29.2255 55.484 30.0631 56.6035 30.096C57.509 30.1288 58.7274 29.209 58.5874 28.0182ZM22.7127 28.0264C22.5728 29.1844 23.7911 30.1042 24.7048 30.1042C25.8985 30.1124 26.7957 29.0366 26.7957 28.1743C26.7957 26.9424 25.9479 26.0719 24.8036 25.9979C23.8158 25.9322 22.5728 26.9424 22.7127 28.0264Z" fill="#F8F8F8"/>
<path d="M37.3161 52.8528C37.3985 52.1794 37.4725 51.5306 37.5713 50.8818C37.7113 49.9538 37.8594 49.0258 38.0076 48.0896C38.1476 47.1944 38.2957 46.291 38.4274 45.3959C38.5015 44.8621 38.5427 44.32 38.625 43.7862C38.7567 42.9321 38.9131 42.0862 39.0531 41.2321C39.1189 40.8133 39.1848 40.4027 39.2424 39.9838C39.4153 38.7355 39.5799 37.479 39.761 36.2225C39.8763 35.4259 40.0162 34.6375 40.1315 33.8409C40.1808 33.5124 40.3619 33.4713 40.6501 33.4713C40.9217 33.4713 41.1275 33.496 41.1687 33.8327C41.2181 34.2679 41.3168 34.695 41.3745 35.122C41.5473 36.3785 41.712 37.6269 41.8931 38.8834C42.0495 39.9592 42.2141 41.0268 42.3788 42.0945C42.5434 43.1785 42.708 44.2626 42.8727 45.3384C43.1279 47.063 43.3831 48.7794 43.6383 50.5041C43.737 51.1775 43.8441 51.8509 43.9428 52.5161C43.984 52.7707 43.8934 52.8939 43.6136 52.8939C41.5967 52.8857 39.5799 52.8857 37.5713 52.8857C37.5055 52.9021 37.4561 52.8857 37.3161 52.8528Z" fill="#336E40"/>
<path d="M24.7625 49.305C22.0871 49.3214 19.9056 47.6133 19.0083 45.4041C18.8108 44.9113 18.7367 44.3611 18.6214 43.8355C18.5474 43.5152 18.712 43.4167 19.033 43.4167C22.3917 43.4249 25.7503 43.4249 29.1089 43.4249C29.5781 43.4249 30.0391 43.4413 30.5083 43.4167C30.8705 43.392 30.994 43.5399 30.9199 43.8684C30.7141 44.7882 30.4589 45.6751 29.9321 46.4799C29.1171 47.7364 27.9647 48.5495 26.5735 49.0094C25.989 49.2065 25.3634 49.2147 24.7625 49.305Z" fill="#336E40"/>
<path d="M50.4214 43.4331C51.1705 43.4331 51.8784 43.4331 52.5946 43.4331C55.7639 43.4331 58.9249 43.4331 62.0942 43.4331C62.7116 43.4331 62.8186 43.5727 62.6787 44.1886C62.3412 45.6423 61.6744 46.907 60.5055 47.8678C59.7893 48.4509 58.999 48.9355 58.077 49.0587C57.2292 49.1736 56.3483 49.305 55.5169 49.1901C54.0434 48.9765 52.7757 48.2456 51.8125 47.0712C51.0552 46.1596 50.6518 45.0838 50.4049 43.9423C50.3884 43.8766 50.3967 43.8027 50.3967 43.7369C50.3967 43.6548 50.4049 43.5727 50.4214 43.4331Z" fill="#336E40"/>
<path d="M40.6501 30.9829C38.979 30.9172 37.7113 29.7593 37.7113 28.0593C37.7113 26.3593 38.9625 25.1028 40.6501 25.1028C42.3376 25.1028 43.5971 26.3675 43.5889 28.0675C43.5806 29.7675 42.3294 30.909 40.6501 30.9829Z" fill="#336E40"/>
<path d="M59.4929 40.9776C57.5255 40.9776 55.6404 40.9776 53.64 40.9776C54.6114 38.4399 55.5663 35.9515 56.5212 33.4631C56.5541 33.4713 56.5871 33.4795 56.62 33.4877C57.5584 35.9597 58.5133 38.4399 59.4929 40.9776Z" fill="#336E40"/>
<path d="M58.5874 28.0182C58.7274 29.209 57.509 30.1288 56.5953 30.096C55.4757 30.0549 54.5126 29.2172 54.5044 28.1825C54.4962 26.9424 55.344 26.0719 56.4883 25.9979C57.4761 25.9322 58.7191 26.9177 58.5874 28.0182Z" fill="#336E40"/>
<path d="M22.7127 28.0264C22.5728 26.9424 23.8158 25.9322 24.8036 25.9979C25.9561 26.0719 26.7957 26.9424 26.7957 28.1743C26.7957 29.0366 25.9067 30.1124 24.7048 30.1042C23.7911 30.1042 22.5728 29.1844 22.7127 28.0264Z" fill="#336E40"/>
</svg>
