<svg width="253" height="185" viewBox="0 0 253 185" fill="none" xmlns="http://www.w3.org/2000/svg">
<path d="M0 108.241C3.84498 108.318 7.68997 108.781 11.4581 109.475C15.2261 110.246 18.9942 111.249 22.7623 112.483C30.1447 115.105 37.2964 118.576 43.9866 122.818C50.6769 127.06 56.9827 132.073 62.7501 137.626C65.6723 140.48 68.4407 143.41 71.0553 146.572C73.6699 149.735 76.1307 153.128 78.4377 156.985C79.5912 158.913 80.6678 160.918 81.6675 163.309C81.8982 163.926 82.1289 164.466 82.3596 165.16L82.6672 166.163L82.821 166.702L82.8979 166.934C82.8979 167.011 82.9748 167.165 82.8979 167.011C82.7441 166.163 82.3596 165.237 81.7444 164.389C81.1292 163.54 80.3602 162.692 79.5143 162.152C77.7456 160.995 75.8231 160.532 73.8237 160.841C72.824 160.995 71.7474 161.304 70.8246 161.921C69.8249 162.46 68.979 163.232 68.3638 164.08C68.21 164.234 68.0562 164.466 67.9024 164.697C67.8255 164.774 67.7486 164.929 67.7486 165.006L67.6717 165.16C67.6717 165.237 67.6717 165.16 67.6717 165.083L67.9793 164.466L68.5945 163.155L69.8249 160.532C73.2085 153.668 76.8228 146.881 80.6678 140.325C88.4347 127.214 96.8936 114.488 106.045 102.148C115.119 89.8848 124.885 78.0073 135.343 66.824C137.958 64.0475 140.65 61.271 143.341 58.5715C146.033 55.8721 148.801 53.1727 151.646 50.5504C157.26 45.3058 163.104 40.2926 169.179 35.5108C181.329 26.0243 194.326 17.4633 208.475 11.0618C215.55 7.89965 222.778 5.20023 230.238 3.34921C237.851 1.34393 245.464 0.26416 253 0.26416C238.62 4.96886 225.854 12.1416 214.089 20.6255C202.323 29.1093 191.557 38.8272 181.483 49.1621C176.408 54.3296 171.563 59.7284 166.795 65.1273C164.412 67.8267 162.105 70.6032 159.798 73.4569C157.491 76.2334 155.184 79.0871 152.953 81.9408C143.956 93.3554 135.343 105.079 127.038 117.11C118.81 129.142 110.889 141.405 103.276 153.822C99.4313 159.992 95.6632 166.24 91.8951 172.487L90.5109 174.801L89.8188 175.958L89.4343 176.575L89.2036 176.96L88.8191 177.577C88.5884 177.963 88.2809 178.348 87.9733 178.734C86.8198 180.277 85.2049 181.665 83.4362 182.745C81.6675 183.824 79.745 184.441 77.8225 184.75C73.9775 185.367 70.0556 184.519 66.7489 182.359C65.134 181.279 63.5961 179.891 62.5195 178.194C61.366 176.575 60.597 174.724 60.2125 173.027L60.1356 172.718V172.641V172.487L60.0587 172.178C59.9818 171.947 59.9049 171.638 59.828 171.407C59.5204 170.25 59.059 168.939 58.4438 167.551C57.2134 164.774 55.6754 161.843 53.9836 158.99C52.2918 156.136 50.3693 153.205 48.3699 150.429C44.2942 144.799 39.834 139.4 34.9125 134.309C34.2973 133.692 33.6821 133.075 33.0669 132.381C32.4517 131.764 31.8365 131.147 31.1444 130.53C29.914 129.296 28.5298 128.062 27.2225 126.905C24.531 124.592 21.7626 122.201 18.8404 120.041C15.9182 117.882 12.9191 115.799 9.76626 113.794C6.69027 111.789 3.38359 110.015 0 108.241Z" fill="white"/>
</svg>
