<svg width="63" height="63" viewBox="0 0 63 63" fill="none" xmlns="http://www.w3.org/2000/svg">
<rect x="2.5" y="2.44336" width="58" height="58" rx="29" stroke="#333333" stroke-width="4" stroke-linecap="round" stroke-linejoin="round" stroke-dasharray="2 11"/>
<path d="M29.9406 47.6154C27.9246 47.6154 25.8806 47.3914 23.8086 46.9434C21.7366 46.4954 19.9166 45.8374 18.3486 44.9694L21.7086 37.6614C22.9686 38.3894 24.2846 38.9354 25.6566 39.2994C27.0566 39.6354 28.3726 39.8034 29.6046 39.8034C30.7246 39.8034 31.6346 39.6214 32.3346 39.2574C33.0626 38.8654 33.4266 38.2914 33.4266 37.5354C33.4266 36.8914 33.1606 36.4014 32.6286 36.0654C32.0966 35.7014 31.2006 35.5194 29.9406 35.5194H26.0346V29.4294L33.6366 21.7014L34.5186 25.0194H19.8606V17.5434H41.7846V23.6334L34.1826 31.3614L29.4366 28.6734H32.0406C35.7366 28.6734 38.5506 29.4994 40.4826 31.1514C42.4146 32.8034 43.3806 34.9314 43.3806 37.5354C43.3806 39.2154 42.9046 40.8254 41.9526 42.3654C41.0286 43.9054 39.5726 45.1654 37.5846 46.1454C35.6246 47.1254 33.0766 47.6154 29.9406 47.6154Z" fill="#408950"/>
</svg>
