<svg width="24" height="25" viewBox="0 0 24 25" fill="none" xmlns="http://www.w3.org/2000/svg">
<path d="M13.8 24.7125C19.5732 23.8437 24 18.8625 24 12.8469C24 6.21932 18.6276 0.846924 12 0.846924C5.3724 0.846924 0 6.21932 0 12.8469C0 18.8625 4.4268 23.8449 10.2 24.7125V16.4469H8.4C7.92261 16.4469 7.46477 16.2573 7.12721 15.9197C6.78964 15.5822 6.6 15.1243 6.6 14.6469C6.6 14.1695 6.78964 13.7117 7.12721 13.3741C7.46477 13.0366 7.92261 12.8469 8.4 12.8469H10.2V10.4469C10.2 9.33301 10.6425 8.26473 11.4302 7.47708C12.2178 6.68942 13.2861 6.24692 14.4 6.24692H15C15.4774 6.24692 15.9352 6.43657 16.2728 6.77413C16.6104 7.1117 16.8 7.56953 16.8 8.04692C16.8 8.52431 16.6104 8.98215 16.2728 9.31972C15.9352 9.65728 15.4774 9.84692 15 9.84692H14.4C14.2409 9.84692 14.0883 9.91014 13.9757 10.0227C13.8632 10.1352 13.8 10.2878 13.8 10.4469V12.8469H15.6C16.0774 12.8469 16.5352 13.0366 16.8728 13.3741C17.2104 13.7117 17.4 14.1695 17.4 14.6469C17.4 15.1243 17.2104 15.5822 16.8728 15.9197C16.5352 16.2573 16.0774 16.4469 15.6 16.4469H13.8V24.7125Z" fill="#55B76B"/>
</svg>
