<svg width="66" height="62" viewBox="0 0 66 62" fill="none" xmlns="http://www.w3.org/2000/svg">
<g clip-path="url(#clip0_45_218)">
<path d="M48.3702 21.1119C48.3702 21.1649 48.3702 21.1914 48.3702 21.2443C48.3702 19.8939 48.212 18.5435 47.9219 17.2724C47.9482 17.2724 47.9482 17.2724 47.9746 17.2724C48.2384 18.517 48.3702 19.8145 48.3702 21.1119Z" fill="#55B76B"/>
<path d="M62.3218 60.4342C62.5591 60.9903 62.1108 61.6258 61.5041 61.5199C54.7522 60.4077 50.7169 58.7131 48.9762 57.8128C46.6816 58.4218 44.3079 58.7396 41.9341 58.7396C31.4634 58.7396 22.5751 52.8347 19.3047 44.6261C20.9927 44.9174 22.6806 45.0498 24.395 45.0498C39.3758 45.0498 51.5345 34.3787 51.5345 21.2185C51.5345 20.2388 51.4554 19.259 51.3235 18.3058C59.8953 21.5098 65.9087 28.9769 65.9087 37.6886C65.9087 42.9844 63.6669 47.8301 60.0008 51.5372C60.2909 54.5558 61.2404 57.9187 62.3218 60.4342Z" fill="#55B76B"/>
<path d="M47.9746 17.2724C47.9482 17.2724 47.9482 17.2724 47.9219 17.2724C48.212 18.5699 48.3702 19.8939 48.3702 21.2443C48.3702 21.1914 48.3702 21.1649 48.3702 21.1119C48.3702 19.8145 48.2384 18.517 47.9746 17.2724Z" fill="white"/>
<path d="M47.9746 17.2726C47.9482 17.2726 47.9482 17.2726 47.9219 17.2726C48.212 18.5701 48.3702 19.8941 48.3702 21.2445C48.3702 21.1916 48.3702 21.1651 48.3702 21.1121C48.3702 19.8146 48.2384 18.5172 47.9746 17.2726Z" fill="#343434"/>
<path d="M47.8963 17.2737C47.9226 17.2737 47.9226 17.2737 47.949 17.2737C45.8918 7.47636 36.1332 0.0621796 24.3701 0.0621796C11.1564 0.0621796 0.421875 9.48878 0.421875 21.1131C0.421875 26.409 2.66372 31.2547 6.3298 34.9618C6.03968 38.0069 5.09019 41.3697 4.0352 43.8853C3.79783 44.4413 4.2462 45.0768 4.85282 44.9709C11.6047 43.8588 15.6401 42.1641 17.3808 41.2638C19.6754 41.8728 22.0491 42.1906 24.4228 42.1906C37.6101 42.1906 48.3183 32.8434 48.3974 21.272C48.3446 19.8951 48.1864 18.5711 47.8963 17.2737ZM14.5323 23.2315C14.0048 23.7611 13.3191 24.0788 12.5806 24.1053C12.5278 24.1053 12.4751 24.1053 12.4223 24.1053C11.6311 24.1053 10.8662 23.7875 10.3124 23.2315C9.7585 22.6754 9.44201 21.9075 9.44201 21.1131C9.44201 20.3188 9.7585 19.5509 10.3124 18.9948C10.8399 18.4652 11.552 18.1475 12.2905 18.121C12.3432 18.121 12.396 18.121 12.4487 18.121C13.24 18.121 14.0048 18.4387 14.5587 18.9948C15.1126 19.5509 15.4291 20.3188 15.4291 21.1131C15.4027 21.9075 15.0862 22.6754 14.5323 23.2315ZM27.3768 21.272C27.324 22.0399 27.0339 22.7019 26.5064 23.2315C25.9525 23.7875 25.1877 24.1053 24.3964 24.1053C23.6052 24.1053 22.8403 23.7875 22.2865 23.2315C21.759 22.7019 21.4425 21.987 21.4161 21.2455C21.4161 21.1926 21.4161 21.1661 21.4161 21.1396C21.4161 20.3453 21.7326 19.5774 22.2865 19.0213C22.8403 18.4652 23.6052 18.1475 24.3964 18.1475C25.1877 18.1475 25.9525 18.4652 26.5064 19.0213C27.0603 19.5774 27.3768 20.3453 27.3768 21.1396C27.4032 21.1661 27.3768 21.2191 27.3768 21.272ZM39.3772 21.2455V21.272C39.3509 22.0134 39.0344 22.7284 38.5069 23.258C37.953 23.814 37.1881 24.1318 36.3969 24.1318C36.3442 24.1318 36.2914 24.1318 36.2387 24.1318C35.5002 24.0788 34.8144 23.7875 34.2869 23.258C33.7594 22.7284 33.4429 22.0134 33.4166 21.272V21.2455C33.4166 21.1926 33.4166 21.1661 33.4166 21.1396C33.4166 20.3453 33.7331 19.5774 34.2869 19.0213C34.8408 18.4652 35.6057 18.1475 36.3969 18.1475C36.4497 18.1475 36.5024 18.1475 36.5552 18.1475C37.2937 18.174 38.0058 18.4917 38.5333 19.0213C39.0871 19.5774 39.4036 20.3453 39.4036 21.1396C39.3773 21.1661 39.3772 21.1926 39.3772 21.2455Z" fill="#002417"/>
<path d="M39.3767 21.1132C39.3767 21.1662 39.3767 21.1927 39.3767 21.2191V21.2456C39.3503 21.987 39.0338 22.702 38.5063 23.2316C37.9525 23.7876 37.1876 24.1054 36.3964 24.1054C36.3436 24.1054 36.2909 24.1054 36.2381 24.1054C35.4996 24.0524 34.8139 23.7612 34.2864 23.2316C33.7589 22.702 33.4424 21.987 33.416 21.2456C33.416 21.1927 33.416 21.1662 33.416 21.1397C33.416 20.3453 33.7325 19.5774 34.2864 19.0214C34.8402 18.4653 35.6051 18.1476 36.3964 18.1476C36.4491 18.1476 36.5019 18.1476 36.5546 18.1476C37.2931 18.174 38.0052 18.4918 38.5327 19.0214C39.0602 19.551 39.3767 20.3189 39.3767 21.1132Z" fill="#F0F2F0"/>
<path d="M27.4021 21.1133C27.4021 21.1663 27.4021 21.2192 27.4021 21.2722C27.3493 22.0136 27.0592 22.6756 26.5317 23.2052C25.9778 23.7612 25.213 24.079 24.4217 24.079C23.6305 24.079 22.8656 23.7612 22.3118 23.2052C21.7843 22.6756 21.4678 21.9606 21.4414 21.2192V21.2457C21.4414 21.1927 21.4414 21.1663 21.4414 21.1398C21.4414 20.3454 21.7579 19.5775 22.3118 19.0214C22.8656 18.4654 23.6305 18.1476 24.4217 18.1476C25.213 18.1476 25.9778 18.4654 26.5317 19.0214C27.0856 19.551 27.4021 20.3189 27.4021 21.1133Z" fill="#F0F2F0"/>
</g>
<defs>
<clipPath id="clip0_45_218">
<rect width="65.4883" height="61.4582" fill="white" transform="translate(0.421875 0.0621796)"/>
</clipPath>
</defs>
</svg>
