<svg width="126" height="129" viewBox="0 0 126 129" fill="none" xmlns="http://www.w3.org/2000/svg">
<g opacity="0.42">
<circle cx="9.39929" cy="8.60047" r="8.60047" fill="#033816"/>
<circle cx="36.201" cy="8.60047" r="8.60047" fill="#033816"/>
<circle cx="63.0018" cy="8.60047" r="8.60047" fill="#033816"/>
<circle cx="89.8036" cy="8.60047" r="8.60047" fill="#033816"/>
<circle cx="116.605" cy="8.60047" r="8.60047" fill="#033816"/>
<circle cx="9.39929" cy="45.8016" r="8.60047" fill="#033816"/>
<circle cx="36.201" cy="45.8016" r="8.60047" fill="#033816"/>
<circle cx="63.0018" cy="45.8016" r="8.60047" fill="#033816"/>
<circle cx="89.8036" cy="45.8016" r="8.60047" fill="#033816"/>
<circle cx="116.605" cy="45.8016" r="8.60047" fill="#033816"/>
<circle cx="9.39929" cy="83.0023" r="8.60047" fill="#033816"/>
<circle cx="36.201" cy="83.0023" r="8.60047" fill="#033816"/>
<circle cx="63.0018" cy="83.0023" r="8.60047" fill="#033816"/>
<circle cx="89.8036" cy="83.0023" r="8.60047" fill="#033816"/>
<circle cx="116.605" cy="83.0023" r="8.60047" fill="#033816"/>
<circle cx="9.39929" cy="120.203" r="8.60047" fill="#033816"/>
<circle cx="36.201" cy="120.203" r="8.60047" fill="#033816"/>
<circle cx="63.0018" cy="120.203" r="8.60047" fill="#033816"/>
<circle cx="89.8036" cy="120.203" r="8.60047" fill="#033816"/>
<circle cx="116.605" cy="120.203" r="8.60047" fill="#033816"/>
</g>
</svg>
