<svg width="82" height="82" viewBox="0 0 82 82" fill="none" xmlns="http://www.w3.org/2000/svg">
<path d="M0.0779761 42.1817C-0.110816 33.9575 2.22856 25.7004 6.71853 18.8168C12.1525 10.4857 20.6645 4.26817 30.2847 1.75979C39.0348 -0.534757 48.5565 0.180747 56.8469 3.82406C65.6463 7.68943 72.9599 14.8116 77.1051 23.4881C80.0027 29.5411 81.3571 36.326 81.0123 43.0288C80.4706 53.4981 75.7836 63.5152 68.1006 70.6291C60.0318 78.1131 49.2542 81.9703 38.2796 81.3699C36.3917 81.2712 34.512 81.0327 32.6569 80.6709C25.4992 79.2727 18.8505 75.8021 13.4576 70.9005C7.63787 65.6041 3.2464 58.556 1.26819 50.8911C0.529435 48.0537 0.143643 45.1177 0.0779761 42.1817ZM56.3052 48.687C56.3052 45.167 56.3134 41.6389 56.297 38.1189C56.297 37.7817 56.3873 37.6666 56.732 37.6748C57.8401 37.683 58.9483 37.6666 60.0564 37.6584C60.2452 37.6584 60.4422 37.6419 60.6228 37.5843C61.3205 37.3705 61.4929 36.7126 60.9757 36.2027C60.3355 35.5694 59.6542 34.9773 59.0139 34.344C58.7841 34.1137 58.6117 34.1137 58.3655 34.3193C56.7402 35.7175 54.8851 36.5892 52.7428 36.8524C50.8056 37.0991 48.9341 36.8688 47.1529 36.0958C45.3552 35.3145 43.8285 34.1549 42.6629 32.5511C41.3003 30.6842 40.5698 28.6035 40.4877 26.3008C40.4466 25.1905 40.6272 24.1131 40.9391 23.044C41.3496 21.6376 42.0144 20.3711 42.9502 19.2526C43.1554 18.9977 43.1308 18.8579 42.9091 18.6523C42.2607 18.0272 41.6286 17.3857 40.9802 16.7607C40.4877 16.2837 40.0855 16.3002 39.6012 16.7936C37.9267 18.5125 36.244 20.2231 34.5695 21.9419C31.204 25.4043 27.8468 28.8667 24.4814 32.3291C23.0778 33.7765 21.6659 35.2158 20.2623 36.6632C20.1392 36.7948 20.0161 36.9675 19.9832 37.1402C19.8765 37.7735 20.172 38.1025 20.8615 38.1025C22.0271 38.1107 23.1845 38.1025 24.3501 38.1107C24.8918 38.1107 24.8918 38.1107 24.8918 38.6453C24.8918 45.4713 24.8918 52.2974 24.8918 59.1235C24.8918 59.7321 24.8918 59.7321 25.5074 59.7321C28.3229 59.7321 31.1466 59.7321 33.962 59.7321C34.5859 59.7321 34.6105 59.7074 34.6105 59.0824C34.6105 55.6118 34.6105 52.1494 34.6105 48.6788C34.6105 47.9797 34.7747 47.8235 35.4806 47.8235C38.8871 47.8235 42.2935 47.8235 45.7 47.8235C46.4305 47.8235 46.5783 47.9797 46.5783 48.7117C46.5783 52.1658 46.5783 55.62 46.5783 59.0741C46.5783 59.7239 46.5865 59.7321 47.2103 59.7321C50.0422 59.7321 52.8741 59.7321 55.706 59.7321C56.297 59.7321 56.297 59.7321 56.297 59.1399C56.3052 55.6529 56.3052 52.174 56.3052 48.687ZM51.3638 35.7915C54.0233 35.7832 56.297 34.7881 58.1685 32.9295C60.0482 31.0708 61.0003 28.7516 61.0168 26.1363C61.0332 23.4799 60.0892 21.1195 58.1685 19.2197C56.2641 17.3364 53.9412 16.3495 51.2899 16.3906C45.9298 16.4729 41.6861 20.7494 41.6615 26.0129C41.6204 31.3833 46.0694 35.8079 51.3638 35.7915ZM40.5862 60.8999C36.8514 60.8999 33.1166 60.8999 29.39 60.8999C27.4036 60.8999 25.4254 60.9081 23.4389 60.8999C22.4786 60.8917 22.3144 60.9822 22.339 61.9855C22.3636 62.8902 22.339 63.7948 22.3472 64.6995C22.3472 65.2341 22.5606 65.4726 23.086 65.5384C23.2091 65.5548 23.3322 65.5466 23.4554 65.5466C34.8568 65.5466 46.2664 65.5466 57.6678 65.5466C57.8319 65.5466 57.9961 65.5466 58.1603 65.5137C58.7184 65.3821 58.8498 65.2094 58.8498 64.6337C58.8498 63.6303 58.8498 62.6352 58.8498 61.6319C58.8498 61.1878 58.5953 60.9328 58.1521 60.9164C57.9468 60.9081 57.7416 60.9081 57.5364 60.9081C51.8891 60.8999 46.2335 60.8999 40.5862 60.8999ZM45.3963 54.3452C45.3963 52.7168 45.3881 51.0885 45.4045 49.4601C45.4045 49.0982 45.2978 48.9913 44.9366 48.9913C42.0391 49.0077 39.1415 49.0077 36.244 48.9913C35.8746 48.9913 35.7843 49.1229 35.7843 49.4683C35.7925 52.7168 35.8007 55.9572 35.7843 59.2057C35.7843 59.6334 35.9403 59.7321 36.3343 59.7321C39.1743 59.7156 42.0226 59.7156 44.8627 59.7321C45.2732 59.7321 45.4127 59.6169 45.4045 59.1975C45.3881 57.5773 45.4045 55.9654 45.3963 54.3452ZM27.3215 24.2118C27.3215 25.174 27.3133 26.1281 27.3297 27.0903C27.3297 27.2136 27.4118 27.3288 27.4528 27.4521C27.5677 27.3946 27.6991 27.3535 27.7812 27.2712C28.0931 26.9669 28.3968 26.6544 28.7005 26.3337C29.784 25.1987 30.8429 24.0391 31.9674 22.9535C32.4928 22.4436 32.8457 21.9748 32.7472 21.2018C32.6733 20.5932 32.4599 20.3136 31.8279 20.3136C30.6212 20.3053 29.4228 20.3053 28.2162 20.3136C27.7237 20.3136 27.4857 20.5027 27.379 20.9797C27.3297 21.1935 27.3133 21.4156 27.3133 21.6294C27.3133 22.4847 27.3215 23.3483 27.3215 24.2118Z" fill="#336E40"/>
<path d="M56.3052 48.687C56.3052 52.1658 56.305 55.6528 56.305 59.1317C56.305 59.7156 56.305 59.7156 55.714 59.7238C52.8821 59.7238 50.0502 59.7238 47.2183 59.7238C46.5945 59.7238 46.5863 59.7156 46.5863 59.0659C46.5863 55.6117 46.5863 52.1576 46.5863 48.7034C46.5863 47.9632 46.4303 47.8152 45.708 47.8152C42.3015 47.8152 38.8951 47.8152 35.4886 47.8152C34.7827 47.8152 34.6185 47.9714 34.6185 48.6705C34.6185 52.1411 34.6185 55.6035 34.6185 59.0741C34.6185 59.6991 34.5939 59.7238 33.97 59.7238C31.1546 59.7238 28.3309 59.7238 25.5154 59.7238C24.8998 59.7238 24.8998 59.7238 24.8998 59.1152C24.8998 52.2891 24.8998 45.4631 24.8998 38.637C24.8998 38.1024 24.8998 38.1024 24.3581 38.1024C23.1925 38.1024 22.0351 38.1106 20.8695 38.0942C20.18 38.086 19.8845 37.7652 19.9912 37.132C20.0241 36.9593 20.1472 36.7865 20.2703 36.655C21.6739 35.2075 23.0858 33.7683 24.4894 32.3208C27.8548 28.8584 31.212 25.396 34.5775 21.9337C36.252 20.2148 37.9347 18.496 39.6092 16.7853C40.0853 16.2919 40.4957 16.2837 40.9882 16.7524C41.6366 17.3775 42.2605 18.0272 42.9171 18.644C43.1388 18.8578 43.1634 18.9976 42.9582 19.2444C42.0306 20.3711 41.3576 21.6294 40.9471 23.0357C40.6352 24.1049 40.4546 25.1822 40.4957 26.2925C40.5778 28.5953 41.3083 30.6842 42.6709 32.5429C43.8447 34.1466 45.3632 35.3144 47.1609 36.0875C48.9421 36.8606 50.8136 37.0826 52.7508 36.8441C54.8931 36.5727 56.7482 35.7092 58.3735 34.3111C58.6197 34.0972 58.7839 34.1055 59.0219 34.3357C59.6622 34.969 60.3435 35.5611 60.9837 36.1944C61.5091 36.7043 61.3367 37.3622 60.6308 37.5761C60.4502 37.6336 60.2532 37.6419 60.0644 37.6501C58.9563 37.6665 57.8481 37.683 56.74 37.6665C56.3953 37.6665 56.305 37.7734 56.305 38.1106C56.3132 41.647 56.3052 45.167 56.3052 48.687ZM40.6024 45.2328C42.3508 45.2328 44.0991 45.2328 45.8557 45.2328C46.3811 45.2328 46.5617 45.0519 46.5617 44.5091C46.5617 42.0829 46.5617 39.6568 46.5617 37.2307C46.5617 36.655 46.2908 36.3836 45.708 36.3836C42.3015 36.3836 38.8951 36.3836 35.4968 36.3836C34.9222 36.3836 34.6431 36.6632 34.6431 37.2307C34.6431 39.6403 34.6431 42.05 34.6431 44.4679C34.6431 45.0601 34.8073 45.2246 35.3983 45.2246C37.1303 45.2328 38.8622 45.2328 40.6024 45.2328Z" fill="#F8F8F8"/>
<path d="M51.3638 35.7915C46.0694 35.7997 41.6202 31.3833 41.6531 26.0129C41.6859 20.7494 45.9296 16.4728 51.2815 16.3906C53.9328 16.3494 56.2639 17.3363 58.1601 19.2197C60.0726 21.1195 61.0166 23.4798 61.0084 26.1362C60.9919 28.7515 60.0398 31.0707 58.1601 32.9294C56.2968 34.7963 54.0233 35.7832 51.3638 35.7915ZM51.3553 32.033C52.5209 32.033 53.6783 32.033 54.8439 32.033C55.3446 32.033 55.6155 31.8191 55.6155 31.3915C55.6237 29.4177 55.6155 27.4439 55.6237 25.4701C55.6237 25.1164 55.4513 24.9437 55.1066 24.9273C55.0409 24.9273 54.967 24.919 54.9013 24.919C54.376 24.9026 54.3596 24.8862 54.3596 24.3434C54.3596 23.8664 54.3842 23.3811 54.3514 22.9041C54.3268 22.5834 54.2529 22.2544 54.1216 21.9666C53.5059 20.6836 52.2418 20.0339 50.8218 20.2477C49.5577 20.4369 48.4906 21.4402 48.3921 22.7396C48.3511 23.2824 48.3347 23.8335 48.3347 24.3763C48.3347 24.7463 48.2115 24.9273 47.8093 24.9273C47.1855 24.9273 47.1116 25.026 47.1116 25.6592C47.1116 27.5097 47.1116 29.3601 47.1116 31.2105C47.1116 31.8356 47.3168 32.033 47.9571 32.033C49.0816 32.0412 50.2144 32.033 51.3553 32.033Z" fill="#F8F8F8"/>
<path d="M40.5862 60.8999C46.2335 60.8999 51.8807 60.8999 57.528 60.8999C57.7332 60.8999 57.9384 60.8999 58.1436 60.9081C58.5869 60.9245 58.8414 61.1795 58.8414 61.6236C58.8496 62.6269 58.8414 63.6221 58.8414 64.6254C58.8414 65.2011 58.7018 65.382 58.1518 65.5054C57.9959 65.5383 57.8235 65.5383 57.6593 65.5383C46.2579 65.5383 34.8483 65.5383 23.4469 65.5383C23.3238 65.5383 23.2007 65.5465 23.0776 65.5301C22.5522 65.4561 22.3388 65.2258 22.3388 64.6912C22.3306 63.7865 22.3552 62.8819 22.3306 61.9772C22.306 60.9739 22.4702 60.8834 23.4305 60.8916C25.417 60.9081 27.3952 60.8916 29.3816 60.8916C33.1246 60.8999 36.8596 60.8999 40.5862 60.8999Z" fill="#F8F8F8"/>
<path d="M45.4043 54.3452C45.4043 55.9571 45.3961 57.5773 45.4125 59.1892C45.4207 59.6087 45.2812 59.7238 44.8707 59.7238C42.0306 59.7073 39.1823 59.7073 36.3423 59.7238C35.9483 59.7238 35.7923 59.6333 35.7923 59.1975C35.8087 55.9489 35.8087 52.7086 35.7923 49.46C35.7923 49.1146 35.8744 48.983 36.252 48.983C39.1495 48.9995 42.0471 48.9995 44.9446 48.983C45.3058 48.983 45.4125 49.0899 45.4125 49.4518C45.3879 51.0884 45.3961 52.7168 45.4043 54.3452Z" fill="#F8F8F8"/>
<path d="M27.3215 24.2118C27.3215 23.3483 27.3131 22.4847 27.3213 21.6211C27.3213 21.4073 27.3459 21.1853 27.387 20.9714C27.4937 20.4944 27.7317 20.3053 28.2242 20.3053C29.4308 20.2971 30.6293 20.2971 31.8359 20.3053C32.4679 20.3053 32.6813 20.5931 32.7552 21.1935C32.8537 21.9666 32.5008 22.4436 31.9754 22.9452C30.8427 24.0308 29.792 25.1987 28.7085 26.3254C28.4048 26.6379 28.1011 26.9586 27.7892 27.2629C27.6989 27.3452 27.5675 27.3863 27.4608 27.4439C27.4198 27.3205 27.3377 27.2054 27.3377 27.082C27.3131 26.128 27.3215 25.1658 27.3215 24.2118Z" fill="#F8F8F8"/>
<path d="M40.6024 45.2328C38.8622 45.2328 37.1303 45.2328 35.3901 45.2328C34.8073 45.2328 34.6349 45.0601 34.6349 44.4762C34.6349 42.0665 34.6349 39.6568 34.6349 37.2389C34.6349 36.6714 34.914 36.3918 35.4886 36.3918C38.8951 36.3918 42.3015 36.3918 45.6998 36.3918C46.2826 36.3918 46.5534 36.6632 46.5534 37.2389C46.5534 39.665 46.5534 42.0911 46.5534 44.5173C46.5534 45.0519 46.3729 45.241 45.8475 45.241C44.0992 45.2328 42.3508 45.2328 40.6024 45.2328ZM37.9018 40.3723C38.5011 40.3723 39.1003 40.3723 39.6995 40.3723C39.9868 40.3723 40.1181 40.2407 40.1181 39.9446C40.1099 39.262 40.1181 38.5794 40.1181 37.8968C40.1181 37.5761 39.9786 37.4198 39.6502 37.4198C38.4764 37.428 37.3026 37.428 36.1288 37.4198C35.7759 37.4198 35.6528 37.5761 35.661 37.9215C35.6774 38.5794 35.6774 39.2374 35.661 39.8871C35.6528 40.2489 35.8087 40.3723 36.1453 40.3641C36.7281 40.3641 37.3108 40.3723 37.9018 40.3723ZM43.3111 37.4198C42.7366 37.4198 42.162 37.428 41.5956 37.4198C41.2591 37.4116 41.0867 37.5432 41.0867 37.8968C41.0949 38.5794 41.0949 39.262 41.0867 39.9446C41.0867 40.2407 41.2262 40.3641 41.5135 40.3641C42.7119 40.3641 43.9186 40.3641 45.117 40.3641C45.4535 40.3641 45.5685 40.2078 45.5602 39.8788C45.5438 39.2209 45.5438 38.563 45.5602 37.9133C45.5685 37.5267 45.3961 37.4034 45.0431 37.4116C44.4521 37.428 43.8775 37.4198 43.3111 37.4198ZM37.9018 41.3756C37.3108 41.3756 36.7281 41.3839 36.1371 41.3756C35.8005 41.3674 35.6363 41.4826 35.6528 41.8526C35.6774 42.5106 35.6692 43.1685 35.6528 43.8265C35.6446 44.1883 35.8005 44.3199 36.1371 44.3199C37.3026 44.3199 38.46 44.3199 39.6256 44.3199C39.9704 44.3199 40.1263 44.1636 40.1181 43.8182C40.1099 43.1603 40.1099 42.5024 40.1181 41.8444C40.1263 41.5155 39.995 41.3674 39.6584 41.3756C39.0756 41.3839 38.4928 41.3756 37.9018 41.3756ZM43.3111 41.3756C42.7119 41.3756 42.1127 41.3756 41.5053 41.3756C41.2591 41.3756 41.0703 41.4414 41.0785 41.7375C41.0785 42.4612 41.0621 43.185 41.0949 43.9087C41.1031 44.0485 41.3329 44.287 41.4643 44.287C42.6791 44.3117 43.8939 44.3117 45.1088 44.2952C45.3961 44.2952 45.552 44.139 45.5438 43.8265C45.5274 43.1685 45.5274 42.5106 45.5438 41.8609C45.552 41.5072 45.4207 41.3674 45.0759 41.3674C44.4849 41.3839 43.9021 41.3756 43.3111 41.3756Z" fill="#336E40"/>
<path d="M51.3553 32.033C50.2226 32.033 49.0816 32.033 47.9489 32.033C47.3168 32.033 47.1034 31.8356 47.1034 31.2105C47.1034 29.3601 47.1034 27.5097 47.1034 25.6592C47.1034 25.026 47.1855 24.9273 47.8011 24.9273C48.2033 24.9273 48.3265 24.7463 48.3265 24.3762C48.3265 23.8252 48.3429 23.2824 48.3839 22.7396C48.4824 21.4402 49.5413 20.4369 50.8136 20.2477C52.2336 20.0339 53.4977 20.6836 54.1133 21.9666C54.2529 22.2544 54.3186 22.5834 54.3432 22.9041C54.3842 23.3811 54.3514 23.8664 54.3514 24.3434C54.3514 24.8862 54.3678 24.9026 54.8931 24.919C54.9588 24.919 55.0327 24.9273 55.0983 24.9273C55.4431 24.9437 55.6155 25.1164 55.6155 25.4701C55.6155 27.4439 55.6155 29.4177 55.6073 31.3915C55.6073 31.8109 55.3364 32.033 54.8357 32.033C53.6783 32.0412 52.5127 32.033 51.3553 32.033ZM51.3717 30.8569C52.25 30.8569 53.1201 30.8405 53.9902 30.8651C54.3678 30.8734 54.5238 30.7006 54.5238 30.3635C54.532 29.1216 54.532 27.8715 54.5238 26.6297C54.5156 26.1444 54.3924 26.0293 53.8999 26.0211C52.1762 26.0129 50.4606 26.0211 48.7369 26.0129C48.3757 26.0129 48.2115 26.1609 48.2197 26.5228C48.228 27.8057 48.228 29.0969 48.2197 30.3799C48.2197 30.7335 48.3593 30.8651 48.7122 30.8569C49.5987 30.8405 50.4852 30.8569 51.3717 30.8569ZM51.3389 24.919C51.8068 24.919 52.2665 24.9108 52.7343 24.919C53.0463 24.9273 53.1858 24.8039 53.1776 24.4832C53.1612 24.0062 53.1776 23.5209 53.1694 23.0439C53.1612 22.2544 52.4717 21.4978 51.6755 21.3909C50.7069 21.2593 49.7957 21.7198 49.6152 22.534C49.4756 23.1344 49.5002 23.7677 49.4428 24.3927C49.41 24.7957 49.6152 24.9355 49.9845 24.9273C50.4442 24.9108 50.8957 24.919 51.3389 24.919Z" fill="#336E40"/>
<path d="M37.9018 40.3723C37.3191 40.3723 36.7281 40.3641 36.1453 40.3723C35.8087 40.3805 35.6446 40.2572 35.661 39.8953C35.6856 39.2374 35.6774 38.5794 35.661 37.9297C35.6528 37.5843 35.7759 37.4198 36.1288 37.428C37.3026 37.4363 38.4764 37.4363 39.6502 37.428C39.9786 37.428 40.1263 37.5843 40.1181 37.905C40.1181 38.5876 40.1099 39.2703 40.1181 39.9529C40.1181 40.2489 39.9868 40.3805 39.6995 40.3805C39.1003 40.3723 38.5011 40.3723 37.9018 40.3723Z" fill="#F8F8F8"/>
<path d="M43.3111 37.4198C43.8857 37.4198 44.4603 37.428 45.0267 37.4198C45.3797 37.4116 45.5602 37.535 45.5438 37.9215C45.5274 38.5794 45.5274 39.2374 45.5438 39.8871C45.552 40.216 45.4371 40.3723 45.1006 40.3723C43.9022 40.3641 42.6955 40.3723 41.4971 40.3723C41.2098 40.3723 41.0703 40.2489 41.0703 39.9529C41.0785 39.2703 41.0785 38.5876 41.0703 37.905C41.0703 37.5514 41.2426 37.4198 41.5792 37.428C42.162 37.428 42.7366 37.4198 43.3111 37.4198Z" fill="#F8F8F8"/>
<path d="M37.9018 41.3756C38.4928 41.3756 39.0756 41.3839 39.6666 41.3756C39.995 41.3674 40.1345 41.5155 40.1263 41.8444C40.1099 42.5024 40.1181 43.1603 40.1263 43.8182C40.1345 44.1636 39.9704 44.3199 39.6338 44.3199C38.4682 44.3199 37.3108 44.3199 36.1453 44.3199C35.8087 44.3199 35.6446 44.1883 35.661 43.8265C35.6774 43.1685 35.6856 42.5106 35.661 41.8526C35.6446 41.4826 35.8169 41.3756 36.1453 41.3756C36.7281 41.3839 37.3108 41.3756 37.9018 41.3756Z" fill="#F8F8F8"/>
<path d="M43.3111 41.3756C43.9021 41.3756 44.4849 41.3839 45.0759 41.3756C45.4207 41.3674 45.5602 41.5072 45.5438 41.8691C45.5192 42.527 45.5274 43.185 45.5438 43.8347C45.552 44.1554 45.3961 44.3034 45.1088 44.3034C43.8939 44.3117 42.6791 44.3199 41.4643 44.2952C41.3329 44.2952 41.1031 44.0567 41.0949 43.9169C41.0539 43.1932 41.0785 42.4695 41.0785 41.7457C41.0785 41.4414 41.2673 41.3839 41.5053 41.3839C42.1127 41.3756 42.7119 41.3756 43.3111 41.3756Z" fill="#F8F8F8"/>
<path d="M51.3717 30.8569C50.4852 30.8569 49.5987 30.8487 48.7122 30.8651C48.3593 30.8734 48.2197 30.7335 48.2197 30.3881C48.228 29.1052 48.228 27.814 48.2197 26.531C48.2197 26.1609 48.3757 26.0129 48.7369 26.0211C50.4606 26.0293 52.1762 26.0211 53.8999 26.0293C54.3924 26.0293 54.5155 26.1445 54.5238 26.6379C54.5402 27.8798 54.532 29.1298 54.5238 30.3717C54.5238 30.7089 54.3678 30.8816 53.9902 30.8734C53.1201 30.8405 52.25 30.8569 51.3717 30.8569Z" fill="#F8F8F8"/>
<path d="M51.3389 24.919C50.8875 24.919 50.436 24.9108 49.9845 24.919C49.6152 24.9273 49.41 24.7875 49.4428 24.3845C49.5002 23.7677 49.4756 23.1262 49.6152 22.5258C49.804 21.7116 50.7151 21.2511 51.6755 21.3826C52.4717 21.4896 53.153 22.2462 53.1694 23.0357C53.1776 23.5127 53.1612 23.9979 53.1776 24.4749C53.1858 24.7957 53.0462 24.919 52.7343 24.9108C52.2747 24.9108 51.8068 24.919 51.3389 24.919Z" fill="#F8F8F8"/>
</svg>
