<svg width="88" height="88" viewBox="0 0 88 88" fill="none" xmlns="http://www.w3.org/2000/svg">
<path d="M43.8262 87.4375C67.8506 87.4375 87.3262 67.9619 87.3262 43.9375C87.3262 19.9131 67.8506 0.4375 43.8262 0.4375C19.8018 0.4375 0.326172 19.9131 0.326172 43.9375C0.326172 67.9619 19.8018 87.4375 43.8262 87.4375Z" fill="#336E40"/>
<path d="M63.0418 32.8545L60.7344 36.221C60.6399 36.3723 60.4318 36.4101 60.2805 36.3155L57.7651 34.6701L43.864 25.6108C43.7505 25.5351 43.6181 25.5351 43.5047 25.6108L29.5847 34.6701L27.126 36.2777C26.9746 36.3723 26.7855 36.3345 26.672 36.1832L24.3646 32.8166C24.2701 32.6653 24.3079 32.4573 24.4592 32.3627L43.5047 19.9368C43.6181 19.8612 43.7505 19.8612 43.864 19.9368L57.7651 28.9962L62.9473 32.3816C63.0986 32.4951 63.1553 32.7031 63.0418 32.8545Z" fill="#F8F8F8"/>
<path d="M57.7651 37.1099V48.8171C57.7651 49.0062 57.6138 49.1386 57.4436 49.1386H29.9251C29.736 49.1386 29.6036 48.9873 29.6036 48.8171V37.1288C29.6036 37.0153 29.6603 36.9208 29.7549 36.864L43.5236 27.8803C43.637 27.8047 43.7694 27.8047 43.8829 27.8803L57.6327 36.8451C57.7273 36.8829 57.7651 36.9964 57.7651 37.1099Z" fill="#F8F8F8"/>
<path d="M66.8244 56.9118C66.9001 57.0821 66.8244 57.2712 66.6542 57.3468L57.784 60.9592L46.9279 65.366L45.0933 66.1036L40.5542 67.9571C40.4407 68.0138 40.2894 67.976 40.1949 67.8814L29.6225 57.2523L28.3931 56.0229C28.3364 55.9662 28.2418 55.9284 28.1662 55.9284H21.0738C20.8846 55.9284 20.7523 55.7771 20.7523 55.6068V51.8999C20.7523 51.7108 20.9036 51.5784 21.0738 51.5784H39.7788C39.8733 51.5784 39.949 51.6162 40.0057 51.6729L44.2423 55.9284L44.961 56.6471C45.0933 56.7795 45.0933 56.9875 44.961 57.1199L42.0294 59.9569C41.897 60.0892 41.689 60.0703 41.5755 59.9569L37.6227 56.0418C37.566 55.9851 37.4714 55.9473 37.3957 55.9473H35.7314C35.4477 55.9473 35.2964 56.3066 35.5044 56.4958L41.3107 62.321C41.4053 62.4155 41.5377 62.4345 41.6701 62.3966L48.0438 59.8055L57.4625 55.9662C57.5003 55.9473 57.5381 55.9473 57.576 55.9473H57.7651V55.8527L64.8007 52.9779C64.971 52.9023 65.1601 52.9968 65.2168 53.1482L66.8244 56.9118Z" fill="#F8F8F8"/>
</svg>
